<?xml version="1.0" encoding="UTF-8"?>
<!DOCTYPE svg PUBLIC "-//W3C//DTD SVG 1.1//EN" "http://www.w3.org/Graphics/SVG/1.1/DTD/svg11.dtd">
<svg xmlns="http://www.w3.org/2000/svg" version="1.1" width="739px" height="182px" style="shape-rendering:geometricPrecision; text-rendering:geometricPrecision; image-rendering:optimizeQuality; fill-rule:evenodd; clip-rule:evenodd" xmlns:xlink="http://www.w3.org/1999/xlink">
<g><path style="opacity:0.127" fill="#0c0c0c" d="M 733.5,1.5 C 735.099,2.7985 735.599,4.46517 735,6.5C 731.152,8.94774 727.152,10.9477 723,12.5C 611.834,47.1497 499.834,80.8164 387,113.5C 323.057,130.85 258.224,147.016 192.5,162C 174.211,165.457 156.045,169.291 138,173.5C 137.439,172.978 136.772,172.645 136,172.5C 107.612,178.667 79.4454,181.167 51.5,180C 43.5074,179.67 36.3407,177.17 30,172.5C 25.1116,165.412 25.6116,158.412 31.5,151.5C 32.547,152.078 32.3803,152.744 31,153.5C 28.526,161.38 31.026,166.88 38.5,170C 51.4691,173.456 64.4691,174.289 77.5,172.5C 84.7211,172.65 91.7211,171.983 98.5,170.5C 110.416,169.655 122.082,167.988 133.5,165.5C 146.119,164.042 158.452,161.708 170.5,158.5C 181.781,156.925 192.781,154.592 203.5,151.5C 215.386,149.326 227.053,146.659 238.5,143.5C 251.095,141.119 263.429,138.119 275.5,134.5C 287.386,131.946 299.053,128.946 310.5,125.5C 331.81,120.591 352.81,114.924 373.5,108.5C 385.767,105.739 397.767,102.405 409.5,98.5C 431.823,92.9438 453.823,86.6105 475.5,79.5C 499.475,73.2597 523.142,66.2597 546.5,58.5C 568.775,52.4056 590.775,45.7389 612.5,38.5C 653.132,26.2723 693.465,13.939 733.5,1.5 Z"/></g>
<g><path style="opacity:0.968" fill="#949394" d="M 732.5,-0.5 C 732.833,-0.5 733.167,-0.5 733.5,-0.5C 733.5,0.166667 733.5,0.833333 733.5,1.5C 693.465,13.939 653.132,26.2723 612.5,38.5C 609.75,38.382 607.75,37.0486 606.5,34.5C 607.571,32.6745 606.904,31.5079 604.5,31C 605.167,30.6667 605.833,30.3333 606.5,30C 605.922,28.583 604.922,27.7496 603.5,27.5C 646.5,18.1667 689.5,8.83333 732.5,-0.5 Z"/></g>
<g><path style="opacity:0.093" fill="#151415" d="M 50.5,22.5 C 52.8741,24.4013 53.0407,26.7346 51,29.5C 43.7026,36.1151 37.8692,43.7818 33.5,52.5C 31.1104,52.3152 30.1104,50.9818 30.5,48.5C 30.6922,46.4233 31.1922,44.4233 32,42.5C 37.0391,34.726 43.2058,28.0594 50.5,22.5 Z"/></g>
<g><path style="opacity:0.994" fill="#3b293c" d="M 50.5,22.5 C 43.2058,28.0594 37.0391,34.726 32,42.5C 31.1922,44.4233 30.6922,46.4233 30.5,48.5C 30.1104,50.9818 31.1104,52.3152 33.5,52.5C 34.5,53.1667 35.5,53.8333 36.5,54.5C 36.8807,55.9311 37.8807,56.7645 39.5,57C 38.8333,57.3333 38.1667,57.6667 37.5,58C 39.158,58.7253 39.658,59.892 39,61.5C 38.6667,60.8333 38.3333,60.1667 38,59.5C 37.6905,60.7659 37.1905,61.9326 36.5,63C 41.4793,64.0128 42.146,65.8461 38.5,68.5C 39.5294,68.2964 40.5294,68.7964 41.5,70C 41.201,71.3204 41.0343,72.8204 41,74.5C 39.9125,72.0684 39.4125,72.4017 39.5,75.5C 44.3673,75.1615 44.7006,76.3282 40.5,79C 41.1905,80.0674 41.6905,81.2341 42,82.5C 42.8928,81.2888 43.7261,81.2888 44.5,82.5C 42.4287,83.9759 41.4287,85.9759 41.5,88.5C 42.8734,88.3433 44.2068,88.51 45.5,89C 44.2889,90.1131 44.2889,91.2798 45.5,92.5C 42.9357,94.3159 42.9357,96.1492 45.5,98C 44.8333,98.3333 44.1667,98.6667 43.5,99C 45.1667,100.667 46.8333,102.333 48.5,104C 47.5209,105.779 47.8542,107.445 49.5,109C 48.8333,109.333 48.1667,109.667 47.5,110C 49.9574,111.512 49.9574,112.846 47.5,114C 51.1015,114.635 51.7682,115.968 49.5,118C 50.1667,118.667 50.8333,119.333 51.5,120C 51.507,121.583 51.1737,123.249 50.5,125C 51.1667,125.333 51.8333,125.667 52.5,126C 47.5863,126.844 47.9197,127.678 53.5,128.5C 51.6212,131.115 49.2879,133.281 46.5,135C 48.5856,135.315 50.5856,135.815 52.5,136.5C 53.128,138.796 54.128,141.296 55.5,144C 53.2438,145.499 53.2438,147.166 55.5,149C 55.3552,149.772 55.0219,150.439 54.5,151C 59.2338,152.016 59.5672,154.016 55.5,157C 56.8333,157.667 57.8333,158.667 58.5,160C 57.2297,163.142 58.2297,165.475 61.5,167C 58.1232,168.039 57.4565,169.539 59.5,171.5C 65.4632,172.496 71.4632,172.829 77.5,172.5C 64.4691,174.289 51.4691,173.456 38.5,170C 31.026,166.88 28.526,161.38 31,153.5C 32.3803,152.744 32.547,152.078 31.5,151.5C 33.3681,147.292 36.0347,143.625 39.5,140.5C 41.8381,139.318 43.8381,137.652 45.5,135.5C 14.2301,121.962 0.896749,98.2953 5.5,64.5C 4.75731,63.8182 4.09065,63.1515 3.5,62.5C 10.5263,43.6122 23.5263,30.4455 42.5,23C 44.8713,22.2652 47.2046,21.4318 49.5,20.5C 50.2975,20.9569 50.6309,21.6236 50.5,22.5 Z"/></g>
<g><path style="opacity:0.982" fill="#8a878a" d="M 603.5,27.5 C 604.922,27.7496 605.922,28.583 606.5,30C 605.833,30.3333 605.167,30.6667 604.5,31C 606.904,31.5079 607.571,32.6745 606.5,34.5C 607.75,37.0486 609.75,38.382 612.5,38.5C 590.775,45.7389 568.775,52.4056 546.5,58.5C 545.167,58.5 543.833,58.5 542.5,58.5C 543.014,56.4884 543.18,54.4884 543,52.5C 542.107,53.7112 541.274,53.7112 540.5,52.5C 540.243,49.6236 541.243,46.957 543.5,44.5C 542.167,44.5 540.833,44.5 539.5,44.5C 540.641,43.5745 540.641,42.7412 539.5,42C 540.416,41.7216 541.082,41.2216 541.5,40.5C 561.892,35.4205 582.559,31.0872 603.5,27.5 Z"/></g>
<g><path style="opacity:0.988" fill="#463446" d="M 121.5,51.5 C 122.537,53.7375 122.703,56.0709 122,58.5C 111.889,76.1151 98.7228,91.1151 82.5,103.5C 81.1689,102.012 79.8355,101.345 78.5,101.5C 79.0253,100.808 79.6919,100.308 80.5,100C 78.7174,98.9335 78.2174,97.4335 79,95.5C 80.1313,96.6039 80.9646,96.2705 81.5,94.5C 80.8333,94.1667 80.1667,93.8333 79.5,93.5C 80.6085,91.7859 79.9418,91.1192 77.5,91.5C 77.67,90.1779 77.3366,89.0113 76.5,88C 77.3081,87.6924 77.9747,87.1924 78.5,86.5C 77.2485,84.9991 76.2485,83.3325 75.5,81.5C 76.1667,81.1667 76.8333,80.8333 77.5,80.5C 76.2485,78.9991 75.2485,77.3325 74.5,75.5C 75.1667,74.8333 75.8333,74.1667 76.5,73.5C 75.0098,72.1743 73.6765,70.6743 72.5,69C 73.3279,68.0853 74.3279,67.4186 75.5,67C 73.6385,65.9717 72.3052,64.4717 71.5,62.5C 72.09,61.2011 73.09,60.3678 74.5,60C 73.3279,59.5814 72.3279,58.9147 71.5,58C 71.9437,56.4667 72.277,54.9667 72.5,53.5C 71.7261,52.2888 70.8928,52.2888 70,53.5C 69.2828,52.9558 68.7828,52.2891 68.5,51.5C 80.5844,49.4687 92.751,48.1354 105,47.5C 108.5,47.6667 112,47.8333 115.5,48C 118.152,48.353 120.152,49.5197 121.5,51.5 Z"/></g>
<g><path style="opacity:0.975" fill="#807a80" d="M 541.5,40.5 C 541.082,41.2216 540.416,41.7216 539.5,42C 540.641,42.7412 540.641,43.5745 539.5,44.5C 540.833,44.5 542.167,44.5 543.5,44.5C 541.243,46.957 540.243,49.6236 540.5,52.5C 541.274,53.7112 542.107,53.7112 543,52.5C 543.18,54.4884 543.014,56.4884 542.5,58.5C 543.833,58.5 545.167,58.5 546.5,58.5C 523.142,66.2597 499.475,73.2597 475.5,79.5C 472.881,79.2317 470.381,79.565 468,80.5C 464.908,78.5799 464.741,76.4132 467.5,74C 467.561,72.2894 466.894,70.956 465.5,70C 466.167,69.6667 466.833,69.3333 467.5,69C 466.167,68.3333 466.167,67.6667 467.5,67C 466.167,66.3333 465.167,65.3333 464.5,64C 465.702,61.8189 465.702,59.3189 464.5,56.5C 489.893,50.4206 515.559,45.0872 541.5,40.5 Z"/></g>
<g><path style="opacity:0.991" fill="#402e40" d="M 68.5,51.5 C 68.7828,52.2891 69.2828,52.9558 70,53.5C 70.8928,52.2888 71.7261,52.2888 72.5,53.5C 72.277,54.9667 71.9437,56.4667 71.5,58C 72.3279,58.9147 73.3279,59.5814 74.5,60C 73.09,60.3678 72.09,61.2011 71.5,62.5C 72.3052,64.4717 73.6385,65.9717 75.5,67C 74.3279,67.4186 73.3279,68.0853 72.5,69C 73.6765,70.6743 75.0098,72.1743 76.5,73.5C 75.8333,74.1667 75.1667,74.8333 74.5,75.5C 75.2485,77.3325 76.2485,78.9991 77.5,80.5C 76.8333,80.8333 76.1667,81.1667 75.5,81.5C 76.2485,83.3325 77.2485,84.9991 78.5,86.5C 77.9747,87.1924 77.3081,87.6924 76.5,88C 77.3366,89.0113 77.67,90.1779 77.5,91.5C 79.9418,91.1192 80.6085,91.7859 79.5,93.5C 80.1667,93.8333 80.8333,94.1667 81.5,94.5C 80.9646,96.2705 80.1313,96.6039 79,95.5C 78.2174,97.4335 78.7174,98.9335 80.5,100C 79.6919,100.308 79.0253,100.808 78.5,101.5C 79.8355,101.345 81.1689,102.012 82.5,103.5C 73.1535,112.178 63.4868,120.511 53.5,128.5C 47.9197,127.678 47.5863,126.844 52.5,126C 51.8333,125.667 51.1667,125.333 50.5,125C 51.1737,123.249 51.507,121.583 51.5,120C 50.8333,119.333 50.1667,118.667 49.5,118C 51.7682,115.968 51.1015,114.635 47.5,114C 49.9574,112.846 49.9574,111.512 47.5,110C 48.1667,109.667 48.8333,109.333 49.5,109C 47.8542,107.445 47.5209,105.779 48.5,104C 46.8333,102.333 45.1667,100.667 43.5,99C 44.1667,98.6667 44.8333,98.3333 45.5,98C 42.9357,96.1492 42.9357,94.3159 45.5,92.5C 44.2889,91.2798 44.2889,90.1131 45.5,89C 44.2068,88.51 42.8734,88.3433 41.5,88.5C 41.4287,85.9759 42.4287,83.9759 44.5,82.5C 43.7261,81.2888 42.8928,81.2888 42,82.5C 41.6905,81.2341 41.1905,80.0674 40.5,79C 44.7006,76.3282 44.3673,75.1615 39.5,75.5C 39.4125,72.4017 39.9125,72.0684 41,74.5C 41.0343,72.8204 41.201,71.3204 41.5,70C 40.5294,68.7964 39.5294,68.2964 38.5,68.5C 42.146,65.8461 41.4793,64.0128 36.5,63C 37.1905,61.9326 37.6905,60.7659 38,59.5C 38.3333,60.1667 38.6667,60.8333 39,61.5C 39.658,59.892 39.158,58.7253 37.5,58C 38.1667,57.6667 38.8333,57.3333 39.5,57C 37.8807,56.7645 36.8807,55.9311 36.5,54.5C 47.3463,54.9029 58.0129,53.9029 68.5,51.5 Z"/></g>
<g><path style="opacity:0.107" fill="#101010" d="M 121.5,51.5 C 123.776,51.7565 124.943,53.0898 125,55.5C 125.667,58.5 125.667,61.5 125,64.5C 117.13,78.6664 106.963,91.1664 94.5,102C 81.6287,113.708 68.6287,125.208 55.5,136.5C 54.5,136.5 53.5,136.5 52.5,136.5C 50.5856,135.815 48.5856,135.315 46.5,135C 49.2879,133.281 51.6212,131.115 53.5,128.5C 63.4868,120.511 73.1535,112.178 82.5,103.5C 98.7228,91.1151 111.889,76.1151 122,58.5C 122.703,56.0709 122.537,53.7375 121.5,51.5 Z"/></g>
<g><path style="opacity:0.984" fill="#766e76" d="M 464.5,56.5 C 465.702,59.3189 465.702,61.8189 464.5,64C 465.167,65.3333 466.167,66.3333 467.5,67C 466.167,67.6667 466.167,68.3333 467.5,69C 466.833,69.3333 466.167,69.6667 465.5,70C 466.894,70.956 467.561,72.2894 467.5,74C 464.741,76.4132 464.908,78.5799 468,80.5C 470.381,79.565 472.881,79.2317 475.5,79.5C 453.823,86.6105 431.823,92.9438 409.5,98.5C 407.704,97.2073 406.037,95.7073 404.5,94C 405.328,93.0853 406.328,92.4186 407.5,92C 405.832,89.7518 404.165,88.2518 402.5,87.5C 405.028,86.1841 405.028,85.0174 402.5,84C 403.138,82.2933 403.138,80.46 402.5,78.5C 403.552,78.6495 404.552,78.4828 405.5,78C 402.732,77.2924 401.899,75.7924 403,73.5C 401.276,76.1699 400.109,75.8366 399.5,72.5C 400.376,71.7492 401.376,71.2492 402.5,71C 401.944,70.6174 401.611,70.1174 401.5,69.5C 422.397,64.7871 443.397,60.4537 464.5,56.5 Z"/></g>
<g><path style="opacity:0.987" fill="#6f666f" d="M 401.5,69.5 C 401.611,70.1174 401.944,70.6174 402.5,71C 401.376,71.2492 400.376,71.7492 399.5,72.5C 400.109,75.8366 401.276,76.1699 403,73.5C 401.899,75.7924 402.732,77.2924 405.5,78C 404.552,78.4828 403.552,78.6495 402.5,78.5C 403.138,80.46 403.138,82.2933 402.5,84C 405.028,85.0174 405.028,86.1841 402.5,87.5C 404.165,88.2518 405.832,89.7518 407.5,92C 406.328,92.4186 405.328,93.0853 404.5,94C 406.037,95.7073 407.704,97.2073 409.5,98.5C 397.767,102.405 385.767,105.739 373.5,108.5C 371.396,108.799 369.396,108.466 367.5,107.5C 368.282,105.671 367.616,104.171 365.5,103C 371.816,100.912 371.816,99.4119 365.5,98.5C 367.802,97.0013 367.469,95.668 364.5,94.5C 365.816,93.1934 366.816,91.6934 367.5,90C 365.983,88.2215 365.149,88.7215 365,91.5C 364.56,89.9238 363.727,88.5904 362.5,87.5C 363.167,86.5 363.833,85.5 364.5,84.5C 364.245,82.6565 364.078,80.6565 364,78.5C 362.893,79.7119 362.393,79.3786 362.5,77.5C 375.442,74.5782 388.442,71.9115 401.5,69.5 Z"/></g>
<g><path style="opacity:0.988" fill="#665c66" d="M 362.5,77.5 C 362.393,79.3786 362.893,79.7119 364,78.5C 364.078,80.6565 364.245,82.6565 364.5,84.5C 363.833,85.5 363.167,86.5 362.5,87.5C 363.727,88.5904 364.56,89.9238 365,91.5C 365.149,88.7215 365.983,88.2215 367.5,90C 366.816,91.6934 365.816,93.1934 364.5,94.5C 367.469,95.668 367.802,97.0013 365.5,98.5C 371.816,99.4119 371.816,100.912 365.5,103C 367.616,104.171 368.282,105.671 367.5,107.5C 369.396,108.466 371.396,108.799 373.5,108.5C 352.81,114.924 331.81,120.591 310.5,125.5C 308.745,124.928 307.078,124.094 305.5,123C 309.5,122.333 309.5,121.667 305.5,121C 306.167,120.333 306.833,119.667 307.5,119C 305.517,117.886 303.85,116.386 302.5,114.5C 303.025,113.808 303.692,113.308 304.5,113C 303.322,112.033 301.989,111.533 300.5,111.5C 301.09,110.201 302.09,109.368 303.5,109C 301.833,108.667 300.167,108.333 298.5,108C 299.87,106.559 300.87,104.892 301.5,103C 301.217,101.076 299.884,99.4092 297.5,98C 302.033,95.9827 301.366,94.316 295.5,93C 297.32,92.7996 298.653,91.9663 299.5,90.5C 320.472,86.0388 341.472,81.7055 362.5,77.5 Z"/></g>
<g><path style="opacity:0.988" fill="#605460" d="M 299.5,90.5 C 298.653,91.9663 297.32,92.7996 295.5,93C 301.366,94.316 302.033,95.9827 297.5,98C 299.884,99.4092 301.217,101.076 301.5,103C 300.87,104.892 299.87,106.559 298.5,108C 300.167,108.333 301.833,108.667 303.5,109C 302.09,109.368 301.09,110.201 300.5,111.5C 301.989,111.533 303.322,112.033 304.5,113C 303.692,113.308 303.025,113.808 302.5,114.5C 303.85,116.386 305.517,117.886 307.5,119C 306.833,119.667 306.167,120.333 305.5,121C 309.5,121.667 309.5,122.333 305.5,123C 307.078,124.094 308.745,124.928 310.5,125.5C 299.053,128.946 287.386,131.946 275.5,134.5C 274.022,134.762 272.689,134.429 271.5,133.5C 271.377,131.378 271.377,129.211 271.5,127C 267.918,126.405 267.584,125.071 270.5,123C 269.873,120.657 268.873,118.49 267.5,116.5C 270.048,114.781 269.715,113.448 266.5,112.5C 269.221,109.624 268.888,107.124 265.5,105C 266.167,104.667 266.833,104.333 267.5,104C 264.751,102.654 264.417,101.32 266.5,100C 265.263,99.7679 264.263,99.2679 263.5,98.5C 275.45,95.7095 287.45,93.0428 299.5,90.5 Z"/></g>
<g><path style="opacity:0.986" fill="#5a4d5a" d="M 263.5,98.5 C 264.263,99.2679 265.263,99.7679 266.5,100C 264.417,101.32 264.751,102.654 267.5,104C 266.833,104.333 266.167,104.667 265.5,105C 268.888,107.124 269.221,109.624 266.5,112.5C 269.715,113.448 270.048,114.781 267.5,116.5C 268.873,118.49 269.873,120.657 270.5,123C 267.584,125.071 267.918,126.405 271.5,127C 271.377,129.211 271.377,131.378 271.5,133.5C 272.689,134.429 274.022,134.762 275.5,134.5C 263.429,138.119 251.095,141.119 238.5,143.5C 236.712,143.785 235.045,143.452 233.5,142.5C 234.188,140.282 233.188,138.782 230.5,138C 231.833,137.333 231.833,136.667 230.5,136C 233.954,135.707 234.288,134.374 231.5,132C 231.616,130.732 231.949,129.398 232.5,128C 231.315,126.647 229.981,125.48 228.5,124.5C 229.668,123.094 229.335,121.928 227.5,121C 231.725,118.539 231.392,116.873 226.5,116C 229.305,113.315 228.638,111.648 224.5,111C 225.167,110.333 225.833,109.667 226.5,109C 225.748,108.329 225.414,107.496 225.5,106.5C 237.919,103.233 250.586,100.566 263.5,98.5 Z"/></g>
<g><path style="opacity:0.111" fill="#0f0e0f" d="M 3.5,62.5 C 4.09065,63.1515 4.75731,63.8182 5.5,64.5C 0.896749,98.2953 14.2301,121.962 45.5,135.5C 43.8381,137.652 41.8381,139.318 39.5,140.5C 26.6835,135.012 16.6835,126.346 9.5,114.5C 9.71481,112.821 9.04814,111.821 7.5,111.5C 0.0674761,95.8936 -1.26586,79.5603 3.5,62.5 Z"/></g>
<g><path style="opacity:0.989" fill="#554755" d="M 225.5,106.5 C 225.414,107.496 225.748,108.329 226.5,109C 225.833,109.667 225.167,110.333 224.5,111C 228.638,111.648 229.305,113.315 226.5,116C 231.392,116.873 231.725,118.539 227.5,121C 229.335,121.928 229.668,123.094 228.5,124.5C 229.981,125.48 231.315,126.647 232.5,128C 231.949,129.398 231.616,130.732 231.5,132C 234.288,134.374 233.954,135.707 230.5,136C 231.833,136.667 231.833,137.333 230.5,138C 233.188,138.782 234.188,140.282 233.5,142.5C 235.045,143.452 236.712,143.785 238.5,143.5C 227.053,146.659 215.386,149.326 203.5,151.5C 203.082,150.778 202.416,150.278 201.5,150C 202.727,148.413 202.394,147.079 200.5,146C 201.167,145.667 201.833,145.333 202.5,145C 198.169,145.141 197.502,143.808 200.5,141C 199.167,140 197.833,139 196.5,138C 198.891,137.309 198.891,136.309 196.5,135C 198.997,132.74 198.33,131.407 194.5,131C 198.272,129.611 198.272,128.611 194.5,128C 195.167,127.667 195.833,127.333 196.5,127C 195.289,125.887 195.289,124.72 196.5,123.5C 195.975,122.808 195.308,122.308 194.5,122C 195.731,120.817 195.731,119.651 194.5,118.5C 193.742,119.811 192.742,120.311 191.5,120C 192.167,118.667 193.167,117.667 194.5,117C 193.62,115.644 193.286,114.144 193.5,112.5C 204.14,110.372 214.807,108.372 225.5,106.5 Z"/></g>
<g><path style="opacity:0.004" fill="#e1e1e1" d="M 7.5,111.5 C 9.04814,111.821 9.71481,112.821 9.5,114.5C 8.59872,113.71 7.93205,112.71 7.5,111.5 Z"/></g>
<g><path style="opacity:0.988" fill="#504150" d="M 193.5,112.5 C 193.286,114.144 193.62,115.644 194.5,117C 193.167,117.667 192.167,118.667 191.5,120C 192.742,120.311 193.742,119.811 194.5,118.5C 195.731,119.651 195.731,120.817 194.5,122C 195.308,122.308 195.975,122.808 196.5,123.5C 195.289,124.72 195.289,125.887 196.5,127C 195.833,127.333 195.167,127.667 194.5,128C 198.272,128.611 198.272,129.611 194.5,131C 198.33,131.407 198.997,132.74 196.5,135C 198.891,136.309 198.891,137.309 196.5,138C 197.833,139 199.167,140 200.5,141C 197.502,143.808 198.169,145.141 202.5,145C 201.833,145.333 201.167,145.667 200.5,146C 202.394,147.079 202.727,148.413 201.5,150C 202.416,150.278 203.082,150.778 203.5,151.5C 192.781,154.592 181.781,156.925 170.5,158.5C 168.319,158.716 166.653,157.883 165.5,156C 167.878,155.026 167.544,154.359 164.5,154C 165.551,152.615 166.884,151.615 168.5,151C 167.167,150.667 165.833,150.333 164.5,150C 165.815,148.605 165.481,147.605 163.5,147C 164.5,146.667 165.5,146.333 166.5,146C 165.289,145.213 164.289,144.546 163.5,144C 163.905,143.055 164.572,142.388 165.5,142C 163.285,141.612 161.952,140.612 161.5,139C 167.175,138.536 167.508,137.869 162.5,137C 163.167,136.667 163.833,136.333 164.5,136C 162.902,132.999 161.569,129.832 160.5,126.5C 161.641,125.575 161.641,124.741 160.5,124C 162.929,123.549 163.096,122.715 161,121.5C 159.256,124.118 158.089,123.785 157.5,120.5C 169.55,117.957 181.55,115.29 193.5,112.5 Z"/></g>
<g><path style="opacity:0.99" fill="#4b3b4b" d="M 157.5,120.5 C 158.089,123.785 159.256,124.118 161,121.5C 163.096,122.715 162.929,123.549 160.5,124C 161.641,124.741 161.641,125.575 160.5,126.5C 161.569,129.832 162.902,132.999 164.5,136C 163.833,136.333 163.167,136.667 162.5,137C 167.508,137.869 167.175,138.536 161.5,139C 161.952,140.612 163.285,141.612 165.5,142C 164.572,142.388 163.905,143.055 163.5,144C 164.289,144.546 165.289,145.213 166.5,146C 165.5,146.333 164.5,146.667 163.5,147C 165.481,147.605 165.815,148.605 164.5,150C 165.833,150.333 167.167,150.667 168.5,151C 166.884,151.615 165.551,152.615 164.5,154C 167.544,154.359 167.878,155.026 165.5,156C 166.653,157.883 168.319,158.716 170.5,158.5C 158.452,161.708 146.119,164.042 133.5,165.5C 132.032,163.389 132.365,161.556 134.5,160C 132.956,159.71 131.623,159.044 130.5,158C 131.376,156.414 132.376,154.914 133.5,153.5C 133.154,152.304 132.654,152.304 132,153.5C 131.362,152.391 130.862,151.225 130.5,150C 130.892,148.989 131.559,148.489 132.5,148.5C 130.903,147.209 129.57,145.709 128.5,144C 129.022,143.05 129.689,142.216 130.5,141.5C 129.471,141.704 128.471,141.204 127.5,140C 127.374,137.766 127.707,135.432 128.5,133C 127.551,132.383 126.718,132.549 126,133.5C 126.793,131.5 126.626,129.5 125.5,127.5C 135.94,124.677 146.606,122.343 157.5,120.5 Z"/></g>
<g><path style="opacity:0.986" fill="#463546" d="M 125.5,127.5 C 126.626,129.5 126.793,131.5 126,133.5C 126.718,132.549 127.551,132.383 128.5,133C 127.707,135.432 127.374,137.766 127.5,140C 128.471,141.204 129.471,141.704 130.5,141.5C 129.689,142.216 129.022,143.05 128.5,144C 129.57,145.709 130.903,147.209 132.5,148.5C 131.559,148.489 130.892,148.989 130.5,150C 130.862,151.225 131.362,152.391 132,153.5C 132.654,152.304 133.154,152.304 133.5,153.5C 132.376,154.914 131.376,156.414 130.5,158C 131.623,159.044 132.956,159.71 134.5,160C 132.365,161.556 132.032,163.389 133.5,165.5C 122.082,167.988 110.416,169.655 98.5,170.5C 96.8008,170.66 95.1341,170.494 93.5,170C 94.8333,169.333 94.8333,168.667 93.5,168C 95.9288,167.549 96.0955,166.715 94,165.5C 93.6667,165.833 93.3333,166.167 93,166.5C 91.9806,164.731 91.814,163.064 92.5,161.5C 90.4106,159.405 90.4106,157.572 92.5,156C 91.1667,153.667 89.8333,151.333 88.5,149C 91.1667,147.667 91.1667,146.333 88.5,145C 90.3939,143.899 91.0606,142.566 90.5,141C 88.7215,141.979 87.0548,141.646 85.5,140C 86.9733,139.29 87.6399,138.124 87.5,136.5C 86.209,136.737 85.209,136.404 84.5,135.5C 98.1183,132.576 111.785,129.91 125.5,127.5 Z"/></g>
<g><path style="opacity:0.981" fill="#402e40" d="M 84.5,135.5 C 85.209,136.404 86.209,136.737 87.5,136.5C 87.6399,138.124 86.9733,139.29 85.5,140C 87.0548,141.646 88.7215,141.979 90.5,141C 91.0606,142.566 90.3939,143.899 88.5,145C 91.1667,146.333 91.1667,147.667 88.5,149C 89.8333,151.333 91.1667,153.667 92.5,156C 90.4106,157.572 90.4106,159.405 92.5,161.5C 91.814,163.064 91.9806,164.731 93,166.5C 93.3333,166.167 93.6667,165.833 94,165.5C 96.0955,166.715 95.9288,167.549 93.5,168C 94.8333,168.667 94.8333,169.333 93.5,170C 95.1341,170.494 96.8008,170.66 98.5,170.5C 91.7211,171.983 84.7211,172.65 77.5,172.5C 71.4632,172.829 65.4632,172.496 59.5,171.5C 57.4565,169.539 58.1232,168.039 61.5,167C 58.2297,165.475 57.2297,163.142 58.5,160C 57.8333,158.667 56.8333,157.667 55.5,157C 59.5672,154.016 59.2338,152.016 54.5,151C 55.0219,150.439 55.3552,149.772 55.5,149C 53.2438,147.166 53.2438,145.499 55.5,144C 54.128,141.296 53.128,138.796 52.5,136.5C 53.5,136.5 54.5,136.5 55.5,136.5C 65.1986,137.975 74.8653,137.642 84.5,135.5 Z"/></g>
</svg>
