<?xml version="1.0" encoding="UTF-8"?>
<!DOCTYPE svg PUBLIC "-//W3C//DTD SVG 1.1//EN" "http://www.w3.org/Graphics/SVG/1.1/DTD/svg11.dtd">
<svg xmlns="http://www.w3.org/2000/svg" version="1.1" width="618px" height="154px" style="shape-rendering:geometricPrecision; text-rendering:geometricPrecision; image-rendering:optimizeQuality; fill-rule:evenodd; clip-rule:evenodd" xmlns:xlink="http://www.w3.org/1999/xlink">
<g><path style="opacity:0.004" fill="#fefffe" d="M 615.5,4.5 C 615.167,3.83333 614.833,3.16667 614.5,2.5C 614.81,1.26166 615.31,1.26166 616,2.5C 616.692,3.43677 616.525,4.10343 615.5,4.5 Z"/></g>
<g><path style="opacity:0.575" fill="#131313" d="M 613.5,8.5 C 613.167,8.5 612.833,8.5 612.5,8.5C 611.105,8.56182 609.605,8.56182 608,8.5C 606.955,9.37344 606.122,10.3734 605.5,11.5C 604.609,12.1098 603.609,12.4431 602.5,12.5C 601.238,12.0934 599.905,11.76 598.5,11.5C 597.099,12.5207 595.765,13.5207 594.5,14.5C 587.361,17.1244 580.028,19.4577 572.5,21.5C 569.772,21.1706 567.438,21.8372 565.5,23.5C 565.167,23.5 564.833,23.5 564.5,23.5C 563.508,23.3284 562.842,23.6618 562.5,24.5C 561.849,25.0906 561.182,25.7573 560.5,26.5C 559.473,25.2086 558.473,25.2086 557.5,26.5C 554.572,26.5651 551.905,27.2318 549.5,28.5C 548.778,28.9175 548.278,29.5842 548,30.5C 547.617,29.944 547.117,29.6107 546.5,29.5C 544.214,29.595 542.214,30.2616 540.5,31.5C 537.848,31.4095 535.515,32.0762 533.5,33.5C 531.75,34.8698 529.75,35.8698 527.5,36.5C 526.791,35.596 525.791,35.2627 524.5,35.5C 517.827,36.6831 511.494,38.6831 505.5,41.5C 503.973,41.427 502.973,42.0937 502.5,43.5C 501.292,44.2341 499.959,44.5674 498.5,44.5C 497.178,44.67 496.011,44.3366 495,43.5C 494.005,44.0659 493.172,44.7326 492.5,45.5C 491.005,45.9887 489.671,46.6554 488.5,47.5C 485.918,47.0254 483.918,47.6921 482.5,49.5C 476.369,51.8757 470.036,53.8757 463.5,55.5C 460.933,55.7215 458.599,56.3882 456.5,57.5C 455.791,58.404 454.791,58.7373 453.5,58.5C 451.139,58.6741 448.806,59.0074 446.5,59.5C 444.801,59.3398 443.134,59.5065 441.5,60C 439.111,60.7388 437.111,61.9054 435.5,63.5C 433.035,63.767 430.701,64.4336 428.5,65.5C 428.167,65.5 427.833,65.5 427.5,65.5C 424.189,65.3072 421.522,66.3072 419.5,68.5C 419.167,68.5 418.833,68.5 418.5,68.5C 416.821,68.2852 415.821,68.9519 415.5,70.5C 414.833,70.5 414.167,70.5 413.5,70.5C 411.176,69.1674 409.509,69.8341 408.5,72.5C 407.167,72.5 405.833,72.5 404.5,72.5C 401.423,72.179 399.09,73.179 397.5,75.5C 397.167,75.5 396.833,75.5 396.5,75.5C 394.872,74.1472 393.538,74.4805 392.5,76.5C 389.014,78.1056 385.347,79.1056 381.5,79.5C 378.772,79.1706 376.438,79.8372 374.5,81.5C 374.167,81.5 373.833,81.5 373.5,81.5C 371.257,80.1416 369.591,80.8083 368.5,83.5C 368.167,83.5 367.833,83.5 367.5,83.5C 366.038,82.5291 364.705,82.8624 363.5,84.5C 361.095,85.7682 358.428,86.4349 355.5,86.5C 353.214,86.595 351.214,87.2616 349.5,88.5C 348.508,88.3284 347.842,88.6618 347.5,89.5C 345.999,88.5573 344.665,88.8906 343.5,90.5C 341.983,90.5106 340.816,91.1772 340,92.5C 339.617,91.944 339.117,91.6107 338.5,91.5C 337.209,91.2627 336.209,91.596 335.5,92.5C 333.821,92.2852 332.821,92.9519 332.5,94.5C 331.833,94.5 331.167,94.5 330.5,94.5C 330.5,93.8333 330.167,93.5 329.5,93.5C 326.982,94.2638 324.649,95.2638 322.5,96.5C 320.579,97.3627 318.579,98.0293 316.5,98.5C 315.053,97.1148 314.053,97.4482 313.5,99.5C 311.784,99.6287 310.117,99.962 308.5,100.5C 308.265,99.9033 307.765,99.5699 307,99.5C 304.97,99.9537 303.137,100.62 301.5,101.5C 299.62,101.229 298.287,101.896 297.5,103.5C 296.5,104.833 295.5,104.833 294.5,103.5C 292.302,103.12 290.635,103.787 289.5,105.5C 283.062,107.659 276.396,109.326 269.5,110.5C 267.143,110.337 264.81,110.503 262.5,111C 261.944,111.383 261.611,111.883 261.5,112.5C 253.307,114.563 244.974,116.896 236.5,119.5C 234.741,118.739 233.074,119.072 231.5,120.5C 230.883,120.389 230.383,120.056 230,119.5C 227.52,120.812 225.02,121.812 222.5,122.5C 222.5,123.167 222.167,123.5 221.5,123.5C 219.444,122.839 217.444,123.172 215.5,124.5C 214.391,124.557 213.391,124.89 212.5,125.5C 210.085,124.352 208.085,125.018 206.5,127.5C 205.833,127.167 205.167,126.833 204.5,126.5C 202.517,126.157 201.183,126.824 200.5,128.5C 200.167,128.5 199.833,128.5 199.5,128.5C 198.903,127.861 198.07,127.528 197,127.5C 195.624,127.684 194.791,128.351 194.5,129.5C 193.833,129.833 193.167,130.167 192.5,130.5C 191.167,129.167 189.833,129.167 188.5,130.5C 188.167,130.5 187.833,130.5 187.5,130.5C 184.377,130.027 181.377,130.694 178.5,132.5C 178.158,133.338 177.492,133.672 176.5,133.5C 174.523,132.128 172.856,132.462 171.5,134.5C 170.791,135.404 169.791,135.737 168.5,135.5C 163.566,135.229 158.9,135.896 154.5,137.5C 152.694,138.024 151.028,138.691 149.5,139.5C 145.958,140.675 142.291,141.341 138.5,141.5C 137.105,140.185 136.105,140.519 135.5,142.5C 131.765,143.633 128.099,143.966 124.5,143.5C 121.627,143.802 118.961,144.469 116.5,145.5C 104.317,148.002 91.9834,149.669 79.5,150.5C 76.1194,150.46 72.7861,150.793 69.5,151.5C 69.1667,151.5 68.8333,151.5 68.5,151.5C 65.8333,151.833 63.1667,152.167 60.5,152.5C 60.1667,152.5 59.8333,152.5 59.5,152.5C 56.8809,150.028 54.2143,150.028 51.5,152.5C 51.1667,152.5 50.8333,152.5 50.5,152.5C 47.272,151.586 43.9387,151.253 40.5,151.5C 39.5,152.833 38.5,152.833 37.5,151.5C 36.6522,150.375 35.6522,150.375 34.5,151.5C 34.5,151.167 34.5,150.833 34.5,150.5C 32.2991,148.582 29.6324,147.249 26.5,146.5C 26.0269,145.094 25.0269,144.427 23.5,144.5C 21.3105,140.612 20.9772,136.612 22.5,132.5C 23.4584,132.047 24.2917,131.381 25,130.5C 25.2016,137.373 28.7016,141.54 35.5,143C 50.2188,145.12 64.8854,144.953 79.5,142.5C 91.7305,141.615 103.731,139.948 115.5,137.5C 133.783,134.612 151.783,130.946 169.5,126.5C 189.192,122.892 208.525,118.225 227.5,112.5C 246.14,108.841 264.474,104.175 282.5,98.5C 298.386,94.6142 314.053,90.2808 329.5,85.5C 343.104,82.3368 356.438,78.6701 369.5,74.5C 391.318,68.4093 412.984,62.0759 434.5,55.5C 450.702,50.8756 466.702,45.8756 482.5,40.5C 524.238,28.3119 565.905,15.6452 607.5,2.5C 609.5,3 611.5,3.5 613.5,4C 612.587,5.41391 612.587,6.91391 613.5,8.5 Z"/></g>
<g><path style="opacity:0.006" fill="#d2d2d2" d="M 612.5,8.5 C 610.491,10.0652 608.157,11.0652 605.5,11.5C 606.122,10.3734 606.955,9.37344 608,8.5C 609.605,8.56182 611.105,8.56182 612.5,8.5 Z"/></g>
<g><path style="opacity:0.008" fill="#949494" d="M 602.5,12.5 C 599.933,13.475 597.267,14.1417 594.5,14.5C 595.765,13.5207 597.099,12.5207 598.5,11.5C 599.905,11.76 601.238,12.0934 602.5,12.5 Z"/></g>
<g><path style="opacity:0.474" fill="#111111" d="M 42.5,19.5 C 43.3446,20.6715 44.0113,22.0048 44.5,23.5C 42.5544,24.0347 41.5544,25.368 41.5,27.5C 40.5,28.5 39.5,29.5 38.5,30.5C 36.2407,31.344 35.2407,33.0107 35.5,35.5C 34.7321,36.2625 34.2321,37.2625 34,38.5C 33.6174,37.944 33.1174,37.6107 32.5,37.5C 30.7073,39.4261 29.7073,41.7594 29.5,44.5C 26.512,44.8453 25.1787,43.512 25.5,40.5C 28.902,31.1516 34.5687,24.1516 42.5,19.5 Z"/></g>
<g><path style="opacity:0.006" fill="#dddddd" d="M 42.5,19.5 C 42.5,19.1667 42.5,18.8333 42.5,18.5C 43.4959,18.4142 44.3292,18.7476 45,19.5C 45.7891,21.7116 45.6225,23.7116 44.5,25.5C 44.5,24.8333 44.5,24.1667 44.5,23.5C 44.0113,22.0048 43.3446,20.6715 42.5,19.5 Z"/></g>
<g><path style="opacity:0.012" fill="#a1a1a1" d="M 572.5,21.5 C 570.444,22.1993 568.444,23.1993 566.5,24.5C 565.893,24.3764 565.56,24.0431 565.5,23.5C 567.438,21.8372 569.772,21.1706 572.5,21.5 Z"/></g>
<g><path style="opacity:0.005" fill="#fefffe" d="M 564.5,23.5 C 563.994,25.1054 563.327,25.4387 562.5,24.5C 562.842,23.6618 563.508,23.3284 564.5,23.5 Z"/></g>
<g><path style="opacity:0.996" fill="#3d2b3e" d="M 42.5,18.5 C 42.5,18.8333 42.5,19.1667 42.5,19.5C 34.5687,24.1516 28.902,31.1516 25.5,40.5C 25.1787,43.512 26.512,44.8453 29.5,44.5C 29.5,45.1667 29.8333,45.5 30.5,45.5C 40.2208,45.5409 49.8874,44.8742 59.5,43.5C 58.5477,45.1123 58.2144,46.6123 58.5,48C 59.9064,50.4449 61.2398,52.9449 62.5,55.5C 62.2601,58.5936 62.2601,61.5936 62.5,64.5C 65.0796,69.0312 66.413,73.6979 66.5,78.5C 64.7645,81.197 65.4312,83.0304 68.5,84C 67.2881,85.1068 67.6214,85.6068 69.5,85.5C 59.9503,94.9513 49.9503,103.951 39.5,112.5C 42.3908,113.678 45.3908,114.345 48.5,114.5C 56.674,115.808 64.674,115.141 72.5,112.5C 72.9371,114.074 73.9371,115.241 75.5,116C 74.572,116.388 73.9054,117.055 73.5,118C 74.5034,121.947 75.8368,126.114 77.5,130.5C 76.4177,134.042 76.4177,137.542 77.5,141C 78.4158,141.278 79.0825,141.778 79.5,142.5C 64.8854,144.953 50.2188,145.12 35.5,143C 28.7016,141.54 25.2016,137.373 25,130.5C 24.2917,131.381 23.4584,132.047 22.5,132.5C 22.3601,130.876 23.0267,129.71 24.5,129C 24.1667,128.667 23.8333,128.333 23.5,128C 25.7341,126.266 27.4008,124.1 28.5,121.5C 31.4596,120.968 31.7929,120.301 29.5,119.5C 29.5,118.833 29.5,118.167 29.5,117.5C 30.5832,117.539 31.5832,117.873 32.5,118.5C 34.6499,116.851 36.6499,115.018 38.5,113C 10.9618,101.262 -0.0381676,80.5953 5.5,51C 5.33333,50.5 5.16667,50 5,49.5C 4.32924,50.2524 3.4959,50.5858 2.5,50.5C 3.13022,48.2504 4.13022,46.2504 5.5,44.5C 6.97439,43.5637 7.97439,42.2303 8.5,40.5C 8.93205,39.2905 9.59872,38.2905 10.5,37.5C 11.8333,36.8333 12.8333,35.8333 13.5,34.5C 14.8333,34.1667 14.8333,33.8333 13.5,33.5C 14.2623,31.7376 15.5956,30.7376 17.5,30.5C 18.8333,29.8333 19.8333,28.8333 20.5,27.5C 26.5455,22.7507 33.3789,19.4174 41,17.5C 41.7648,17.5699 42.2648,17.9033 42.5,18.5 Z"/></g>
<g><path style="opacity:0.967" fill="#919091" d="M 611.5,-0.5 C 612.167,-0.5 612.833,-0.5 613.5,-0.5C 613.263,0.791047 613.596,1.79105 614.5,2.5C 614.833,3.16667 615.167,3.83333 615.5,4.5C 615.011,5.99522 614.345,7.32855 613.5,8.5C 612.587,6.91391 612.587,5.41391 613.5,4C 611.5,3.5 609.5,3 607.5,2.5C 565.905,15.6452 524.238,28.3119 482.5,40.5C 481.19,38.5654 479.857,36.5654 478.5,34.5C 479.822,32.1354 479.822,29.8021 478.5,27.5C 523.638,18.5464 567.972,9.21302 611.5,-0.5 Z"/></g>
<g><path style="opacity:0.024" fill="#585858" d="M 44.5,23.5 C 44.5,24.1667 44.5,24.8333 44.5,25.5C 44.5,25.8333 44.5,26.1667 44.5,26.5C 43.391,26.5569 42.391,26.8902 41.5,27.5C 41.5544,25.368 42.5544,24.0347 44.5,23.5 Z"/></g>
<g><path style="opacity:0.006" fill="#efefef" d="M 44.5,26.5 C 42.8333,28.8333 40.8333,30.8333 38.5,32.5C 38.5,31.8333 38.5,31.1667 38.5,30.5C 39.5,29.5 40.5,28.5 41.5,27.5C 42.391,26.8902 43.391,26.5569 44.5,26.5 Z"/></g>
<g><path style="opacity:0.012" fill="#dadada" d="M 557.5,26.5 C 555.891,27.7709 554.058,28.7709 552,29.5C 551.049,29.1164 550.216,28.7831 549.5,28.5C 551.905,27.2318 554.572,26.5651 557.5,26.5 Z"/></g>
<g><path style="opacity:0.012" fill="#a1a1a1" d="M 20.5,27.5 C 19.8333,28.8333 18.8333,29.8333 17.5,30.5C 17.5,28.5 18.5,27.5 20.5,27.5 Z"/></g>
<g><path style="opacity:0.012" fill="#b9b9b9" d="M 546.5,29.5 C 544.898,31.0739 542.898,31.7406 540.5,31.5C 542.214,30.2616 544.214,29.595 546.5,29.5 Z"/></g>
<g><path style="opacity:0.012" fill="#858585" d="M 38.5,30.5 C 38.5,31.1667 38.5,31.8333 38.5,32.5C 37.8333,33.8333 36.8333,34.8333 35.5,35.5C 35.2407,33.0107 36.2407,31.344 38.5,30.5 Z"/></g>
<g><path style="opacity:0.008" fill="#a4a4a4" d="M 540.5,31.5 C 540.217,32.2891 539.717,32.9558 539,33.5C 537.184,33.6491 535.351,33.6491 533.5,33.5C 535.515,32.0762 537.848,31.4095 540.5,31.5 Z"/></g>
<g><path style="opacity:0.976" fill="#878287" d="M 478.5,27.5 C 479.822,29.8021 479.822,32.1354 478.5,34.5C 479.857,36.5654 481.19,38.5654 482.5,40.5C 466.702,45.8756 450.702,50.8756 434.5,55.5C 432.43,54.7742 430.763,54.1075 429.5,53.5C 430.179,51.4121 430.512,49.4121 430.5,47.5C 429.91,46.2011 428.91,45.3678 427.5,45C 428.167,44.6667 428.833,44.3333 429.5,44C 427.917,42.1026 427.25,40.2693 427.5,38.5C 444.188,35.0901 461.188,31.4235 478.5,27.5 Z"/></g>
<g><path style="opacity:0.012" fill="#c1c1c1" d="M 13.5,33.5 C 13.5,33.8333 13.5,34.1667 13.5,34.5C 12.8333,35.8333 11.8333,36.8333 10.5,37.5C 10.7376,35.5956 11.7376,34.2623 13.5,33.5 Z"/></g>
<g><path style="opacity:0.005" fill="#fefffe" d="M 524.5,35.5 C 525.791,35.2627 526.791,35.596 527.5,36.5C 525.965,37.3543 524.632,37.3543 523.5,36.5C 524.167,36.5 524.5,36.1667 524.5,35.5 Z"/></g>
<g><path style="opacity:0.055" fill="#505050" d="M 524.5,35.5 C 524.5,36.1667 524.167,36.5 523.5,36.5C 522.849,37.0906 522.182,37.7573 521.5,38.5C 520.158,37.0977 519.324,37.4311 519,39.5C 518.667,39.1667 518.333,38.8333 518,38.5C 514.374,40.4969 510.874,41.8302 507.5,42.5C 507.158,41.6618 506.492,41.3284 505.5,41.5C 511.494,38.6831 517.827,36.6831 524.5,35.5 Z"/></g>
<g><path style="opacity:0.007" fill="#d3d3d3" d="M 32.5,37.5 C 32.3059,40.3297 31.6392,42.9963 30.5,45.5C 29.8333,45.5 29.5,45.1667 29.5,44.5C 29.7073,41.7594 30.7073,39.4261 32.5,37.5 Z"/></g>
<g><path style="opacity:0.984" fill="#453446" d="M 104.5,44.5 C 96.2593,60.7676 84.5927,74.4342 69.5,85.5C 67.6214,85.6068 67.2881,85.1068 68.5,84C 65.4312,83.0304 64.7645,81.197 66.5,78.5C 66.413,73.6979 65.0796,69.0312 62.5,64.5C 62.2601,61.5936 62.2601,58.5936 62.5,55.5C 61.2398,52.9449 59.9064,50.4449 58.5,48C 58.2144,46.6123 58.5477,45.1123 59.5,43.5C 71.5181,40.3367 83.8514,39.17 96.5,40C 99.6844,40.7542 102.351,42.2542 104.5,44.5 Z"/></g>
<g><path style="opacity:0.009" fill="#f7f7f7" d="M 8.5,40.5 C 7.97439,42.2303 6.97439,43.5637 5.5,44.5C 5.55437,42.368 6.55437,41.0347 8.5,40.5 Z"/></g>
<g><path style="opacity:0.978" fill="#7d777d" d="M 427.5,38.5 C 427.25,40.2693 427.917,42.1026 429.5,44C 428.833,44.3333 428.167,44.6667 427.5,45C 428.91,45.3678 429.91,46.2011 430.5,47.5C 430.512,49.4121 430.179,51.4121 429.5,53.5C 430.763,54.1075 432.43,54.7742 434.5,55.5C 412.984,62.0759 391.318,68.4093 369.5,74.5C 366.721,73.3832 366.388,72.2166 368.5,71C 366.833,70 365.167,69 363.5,68C 367.148,65.5027 366.815,63.1693 362.5,61C 366.452,56.5355 364.785,54.0355 357.5,53.5C 380.664,48.2656 403.997,43.2656 427.5,38.5 Z"/></g>
<g><path style="opacity:0.012" fill="#cdcdcd" d="M 505.5,41.5 C 506.492,41.3284 507.158,41.6618 507.5,42.5C 505.958,43.3007 504.292,43.634 502.5,43.5C 502.973,42.0937 503.973,41.427 505.5,41.5 Z"/></g>
<g><path style="opacity:0.02" fill="#676767" d="M 498.5,44.5 C 496.786,45.7384 494.786,46.405 492.5,46.5C 492.5,46.1667 492.5,45.8333 492.5,45.5C 493.172,44.7326 494.005,44.0659 495,43.5C 496.011,44.3366 497.178,44.67 498.5,44.5 Z"/></g>
<g><path style="opacity:0.004" fill="#ebebeb" d="M 492.5,45.5 C 492.5,45.8333 492.5,46.1667 492.5,46.5C 491.432,47.4345 490.099,47.7678 488.5,47.5C 489.671,46.6554 491.005,45.9887 492.5,45.5 Z"/></g>
<g><path style="opacity:0.043" fill="#898989" d="M 488.5,47.5 C 486.786,48.7384 484.786,49.405 482.5,49.5C 483.918,47.6921 485.918,47.0254 488.5,47.5 Z"/></g>
<g><path style="opacity:0.008" fill="#d5d5d5" d="M 104.5,44.5 C 107.167,48.8333 107.167,53.1667 104.5,57.5C 104.5,57.1667 104.5,56.8333 104.5,56.5C 105.833,52.5 105.833,48.5 104.5,44.5 Z"/></g>
<g><path style="opacity:0.541" fill="#0e0d0e" d="M 104.5,44.5 C 105.833,48.5 105.833,52.5 104.5,56.5C 102.259,57.2998 101.259,58.9664 101.5,61.5C 99.8967,61.3118 98.5634,61.8118 97.5,63C 97.8333,63.3333 98.1667,63.6667 98.5,64C 96.505,66.1572 95.1717,68.6572 94.5,71.5C 92.0065,71.1307 91.3398,71.7973 92.5,73.5C 91.1266,73.3433 89.7932,73.51 88.5,74C 89.2524,74.6708 89.5858,75.5041 89.5,76.5C 88.0937,76.9731 87.427,77.9731 87.5,79.5C 85.8333,80.8333 84.1667,82.1667 82.5,83.5C 79.4331,83.1205 78.4331,84.1205 79.5,86.5C 79.5,86.8333 79.5,87.1667 79.5,87.5C 76.3836,88.9697 73.7169,90.9697 71.5,93.5C 71.6716,94.4916 71.3382,95.1583 70.5,95.5C 70.5654,95.0618 70.3988,94.7284 70,94.5C 67.9935,95.6687 65.8268,96.3354 63.5,96.5C 63.5,97.8333 63.5,99.1667 63.5,100.5C 63.1667,101.167 62.8333,101.833 62.5,102.5C 61.791,103.404 60.791,103.737 59.5,103.5C 58.5987,104.29 57.9321,105.29 57.5,106.5C 56.1667,106.5 55.5,107.167 55.5,108.5C 54.8333,108.833 54.1667,109.167 53.5,109.5C 52.0783,109.709 50.745,110.209 49.5,111C 48.4019,111.77 48.4019,112.603 49.5,113.5C 48.8333,113.5 48.5,113.833 48.5,114.5C 45.3908,114.345 42.3908,113.678 39.5,112.5C 49.9503,103.951 59.9503,94.9513 69.5,85.5C 84.5927,74.4342 96.2593,60.7676 104.5,44.5 Z"/></g>
<g><path style="opacity:0.024" fill="#a3a3a3" d="M 2.5,51.5 C 3.04309,51.56 3.37642,51.8933 3.5,52.5C 3.2155,54.7594 2.2155,56.4261 0.5,57.5C 0.594955,55.2143 1.26162,53.2143 2.5,51.5 Z"/></g>
<g><path style="opacity:0.984" fill="#736b73" d="M 357.5,53.5 C 364.785,54.0355 366.452,56.5355 362.5,61C 366.815,63.1693 367.148,65.5027 363.5,68C 365.167,69 366.833,70 368.5,71C 366.388,72.2166 366.721,73.3832 369.5,74.5C 356.438,78.6701 343.104,82.3368 329.5,85.5C 327.688,85.2287 326.022,84.562 324.5,83.5C 324.946,81.6318 325.279,79.7985 325.5,78C 322.833,77.3333 322.833,76.6667 325.5,76C 324.833,75.3333 324.167,74.6667 323.5,74C 324.833,72.1598 324.666,71.6598 323,72.5C 322.13,71.8921 321.63,71.0588 321.5,70C 321.892,68.9895 322.559,68.4895 323.5,68.5C 318.325,65.9744 318.325,64.3078 323.5,63.5C 321.978,62.438 320.312,61.7713 318.5,61.5C 331.331,58.6 344.331,55.9333 357.5,53.5 Z"/></g>
<g><path style="opacity:0.005" fill="#fafafa" d="M 463.5,55.5 C 461.562,57.1628 459.228,57.8294 456.5,57.5C 458.599,56.3882 460.933,55.7215 463.5,55.5 Z"/></g>
<g><path style="opacity:0.005" fill="#fbfbfb" d="M 453.5,58.5 C 449.902,60.7403 445.902,62.0736 441.5,62.5C 443.072,61.3127 444.739,60.3127 446.5,59.5C 448.806,59.0074 451.139,58.6741 453.5,58.5 Z"/></g>
<g><path style="opacity:0.125" fill="#5b5b5b" d="M 104.5,56.5 C 104.5,56.8333 104.5,57.1667 104.5,57.5C 103.011,60.478 101.511,63.478 100,66.5C 99.6667,66.1667 99.3333,65.8333 99,65.5C 98.2082,68.1064 96.7082,70.1064 94.5,71.5C 95.1717,68.6572 96.505,66.1572 98.5,64C 98.1667,63.6667 97.8333,63.3333 97.5,63C 98.5634,61.8118 99.8967,61.3118 101.5,61.5C 101.259,58.9664 102.259,57.2998 104.5,56.5 Z"/></g>
<g><path style="opacity:0.059" fill="#626262" d="M 446.5,59.5 C 444.739,60.3127 443.072,61.3127 441.5,62.5C 439.696,62.4241 437.696,62.7575 435.5,63.5C 437.111,61.9054 439.111,60.7388 441.5,60C 443.134,59.5065 444.801,59.3398 446.5,59.5 Z"/></g>
<g><path style="opacity:0.98" fill="#6b616b" d="M 318.5,61.5 C 320.312,61.7713 321.978,62.438 323.5,63.5C 318.325,64.3078 318.325,65.9744 323.5,68.5C 322.559,68.4895 321.892,68.9895 321.5,70C 321.63,71.0588 322.13,71.8921 323,72.5C 324.666,71.6598 324.833,72.1598 323.5,74C 324.167,74.6667 324.833,75.3333 325.5,76C 322.833,76.6667 322.833,77.3333 325.5,78C 325.279,79.7985 324.946,81.6318 324.5,83.5C 326.022,84.562 327.688,85.2287 329.5,85.5C 314.053,90.2808 298.386,94.6142 282.5,98.5C 282.523,96.4004 281.856,94.5671 280.5,93C 281.649,90.2624 280.983,87.9291 278.5,86C 279.428,85.6121 280.095,84.9454 280.5,84C 279.616,82.902 278.616,82.402 277.5,82.5C 278.485,80.9017 278.651,79.235 278,77.5C 276.703,78.7836 275.536,78.6169 274.5,77C 275.614,75.5507 276.614,74.2173 277.5,73C 276.429,72.1482 275.429,71.3149 274.5,70.5C 289.094,67.2888 303.761,64.2888 318.5,61.5 Z"/></g>
<g><path style="opacity:0.005" fill="#fafafa" d="M 435.5,63.5 C 433.78,64.8641 431.78,65.8641 429.5,66.5C 428.893,66.3764 428.56,66.0431 428.5,65.5C 430.701,64.4336 433.035,63.767 435.5,63.5 Z"/></g>
<g><path style="opacity:0.047" fill="#717171" d="M 427.5,65.5 C 425.302,67.3969 422.636,68.3969 419.5,68.5C 421.522,66.3072 424.189,65.3072 427.5,65.5 Z"/></g>
<g><path style="opacity:0.012" fill="#9e9e9e" d="M 418.5,68.5 C 417.71,69.4013 416.71,70.0679 415.5,70.5C 415.821,68.9519 416.821,68.2852 418.5,68.5 Z"/></g>
<g><path style="opacity:0.004" fill="#bcbcbc" d="M 413.5,70.5 C 412.07,71.5375 410.403,72.2041 408.5,72.5C 409.509,69.8341 411.176,69.1674 413.5,70.5 Z"/></g>
<g><path style="opacity:0.024" fill="#828282" d="M 94.5,71.5 C 94.1667,72.5 93.5,73.1667 92.5,73.5C 91.3398,71.7973 92.0065,71.1307 94.5,71.5 Z"/></g>
<g><path style="opacity:0.082" fill="#646464" d="M 92.5,73.5 C 92.0679,74.7095 91.4013,75.7095 90.5,76.5C 90.1667,76.5 89.8333,76.5 89.5,76.5C 89.5858,75.5041 89.2524,74.6708 88.5,74C 89.7932,73.51 91.1266,73.3433 92.5,73.5 Z"/></g>
<g><path style="opacity:0.02" fill="#909090" d="M 404.5,72.5 C 402.429,73.9451 400.096,74.9451 397.5,75.5C 399.09,73.179 401.423,72.179 404.5,72.5 Z"/></g>
<g><path style="opacity:0.01" fill="#ebebeb" d="M 396.5,75.5 C 395.292,76.2341 393.959,76.5674 392.5,76.5C 393.538,74.4805 394.872,74.1472 396.5,75.5 Z"/></g>
<g><path style="opacity:0.988" fill="#615662" d="M 274.5,70.5 C 275.429,71.3149 276.429,72.1482 277.5,73C 276.614,74.2173 275.614,75.5507 274.5,77C 275.536,78.6169 276.703,78.7836 278,77.5C 278.651,79.235 278.485,80.9017 277.5,82.5C 278.616,82.402 279.616,82.902 280.5,84C 280.095,84.9454 279.428,85.6121 278.5,86C 280.983,87.9291 281.649,90.2624 280.5,93C 281.856,94.5671 282.523,96.4004 282.5,98.5C 264.474,104.175 246.14,108.841 227.5,112.5C 226.308,111.434 226.641,110.601 228.5,110C 225.237,109.131 224.904,107.797 227.5,106C 226.167,104.667 224.833,103.333 223.5,102C 224.624,101.751 225.624,101.251 226.5,100.5C 225.313,99.4805 224.313,98.3139 223.5,97C 223.833,96 224.167,95 224.5,94C 222.099,91.5059 222.099,89.1726 224.5,87C 223.207,86.51 221.873,86.3433 220.5,86.5C 220.649,85.448 220.483,84.448 220,83.5C 218.293,84.1383 216.46,84.1383 214.5,83.5C 234.327,78.9326 254.327,74.5993 274.5,70.5 Z"/></g>
<g><path style="opacity:0.008" fill="#f6f6f6" d="M 89.5,76.5 C 89.8333,76.5 90.1667,76.5 90.5,76.5C 89.8333,77.8333 88.8333,78.8333 87.5,79.5C 87.427,77.9731 88.0937,76.9731 89.5,76.5 Z"/></g>
<g><path style="opacity:0.02" fill="#b9b9b9" d="M 381.5,79.5 C 379.485,80.9238 377.152,81.5905 374.5,81.5C 376.438,79.8372 378.772,79.1706 381.5,79.5 Z"/></g>
<g><path style="opacity:0.024" fill="#6e6e6e" d="M 373.5,81.5 C 371.95,82.4408 370.284,83.1075 368.5,83.5C 369.591,80.8083 371.257,80.1416 373.5,81.5 Z"/></g>
<g><path style="opacity:0.004" fill="#d2d2d2" d="M 367.5,83.5 C 366.292,84.2341 364.959,84.5674 363.5,84.5C 364.705,82.8624 366.038,82.5291 367.5,83.5 Z"/></g>
<g><path style="opacity:0.008" fill="#b7b7b7" d="M 1.5,83.5 C 3.48123,84.1054 3.81457,85.1054 2.5,86.5C 1.59603,85.791 1.26269,84.791 1.5,83.5 Z"/></g>
<g><path style="opacity:0.055" fill="#6a6a6a" d="M 82.5,83.5 C 81.8333,84.8333 80.8333,85.8333 79.5,86.5C 78.4331,84.1205 79.4331,83.1205 82.5,83.5 Z"/></g>
<g><path style="opacity:0.007" fill="#fcfcfc" d="M 355.5,86.5 C 355.631,87.2389 355.464,87.9056 355,88.5C 353.36,89.1247 351.527,89.1247 349.5,88.5C 351.214,87.2616 353.214,86.595 355.5,86.5 Z"/></g>
<g><path style="opacity:0.006" fill="#e9e9e9" d="M 347.5,89.5 C 347.842,88.6618 348.508,88.3284 349.5,88.5C 349.591,90.6977 348.925,91.0311 347.5,89.5 Z"/></g>
<g><path style="opacity:0.005" fill="#f7f7f7" d="M 347.5,89.5 C 346.469,90.2485 345.302,90.9152 344,91.5C 343.601,91.2716 343.435,90.9382 343.5,90.5C 344.665,88.8906 345.999,88.5573 347.5,89.5 Z"/></g>
<g><path style="opacity:0.027" fill="#b6b6b6" d="M 79.5,87.5 C 77.4225,90.9948 74.7558,92.9948 71.5,93.5C 73.7169,90.9697 76.3836,88.9697 79.5,87.5 Z"/></g>
<g><path style="opacity:0.986" fill="#574957" d="M 214.5,83.5 C 216.46,84.1383 218.293,84.1383 220,83.5C 220.483,84.448 220.649,85.448 220.5,86.5C 221.873,86.3433 223.207,86.51 224.5,87C 222.099,89.1726 222.099,91.5059 224.5,94C 224.167,95 223.833,96 223.5,97C 224.313,98.3139 225.313,99.4805 226.5,100.5C 225.624,101.251 224.624,101.751 223.5,102C 224.833,103.333 226.167,104.667 227.5,106C 224.904,107.797 225.237,109.131 228.5,110C 226.641,110.601 226.308,111.434 227.5,112.5C 208.525,118.225 189.192,122.892 169.5,126.5C 168.136,124.33 167.136,122.163 166.5,120C 166.833,118.333 167.167,116.667 167.5,115C 164.536,114.16 164.203,113.16 166.5,112C 166.915,108.711 165.248,106.711 161.5,106C 165.795,105.469 166.128,103.469 162.5,100C 162.833,99.6667 163.167,99.3333 163.5,99C 161.94,96.3408 159.607,95.1741 156.5,95.5C 175.632,91.1393 194.966,87.1393 214.5,83.5 Z"/></g>
<g><path style="opacity:0.539" fill="#171717" d="M 29.5,117.5 C 28.5084,117.672 27.8417,117.338 27.5,116.5C 26.1979,114.178 24.1979,112.845 21.5,112.5C 21.1667,112.5 20.8333,112.5 20.5,112.5C 20.5,110.5 19.5,109.5 17.5,109.5C 14.4797,107.477 12.1464,104.81 10.5,101.5C 11.3888,99.9748 10.7221,98.9748 8.5,98.5C 6.30228,98.5912 5.96895,97.9245 7.5,96.5C 6.52816,93.5634 5.19483,90.8967 3.5,88.5C 2.66175,88.1583 2.32842,87.4916 2.5,86.5C 3.81457,85.1054 3.48123,84.1054 1.5,83.5C 1.31426,81.9921 0.64759,80.3254 -0.5,78.5C -0.5,77.8333 -0.5,77.1667 -0.5,76.5C 0.833333,76.1667 0.833333,75.8333 -0.5,75.5C -0.5,72.8333 -0.5,70.1667 -0.5,67.5C 0.833333,67.1667 0.833333,66.8333 -0.5,66.5C -0.5,66.1667 -0.5,65.8333 -0.5,65.5C 0.833333,65.1667 0.833333,64.8333 -0.5,64.5C -0.5,63.1667 -0.5,61.8333 -0.5,60.5C 0.403972,59.791 0.737305,58.791 0.5,57.5C 2.2155,56.4261 3.2155,54.7594 3.5,52.5C 3.37642,51.8933 3.04309,51.56 2.5,51.5C 2.5,51.1667 2.5,50.8333 2.5,50.5C 3.4959,50.5858 4.32924,50.2524 5,49.5C 5.16667,50 5.33333,50.5 5.5,51C -0.0381676,80.5953 10.9618,101.262 38.5,113C 36.6499,115.018 34.6499,116.851 32.5,118.5C 31.5832,117.873 30.5832,117.539 29.5,117.5 Z"/></g>
<g><path style="opacity:0.007" fill="#fefffe" d="M 335.5,92.5 C 336.209,91.596 337.209,91.2627 338.5,91.5C 337.895,93.4812 336.895,93.8146 335.5,92.5 Z"/></g>
<g><path style="opacity:0.008" fill="#ededed" d="M 335.5,92.5 C 334.71,93.4013 333.71,94.0679 332.5,94.5C 332.821,92.9519 333.821,92.2852 335.5,92.5 Z"/></g>
<g><path style="opacity:0.005" fill="#f5f5f5" d="M 329.5,93.5 C 330.167,93.5 330.5,93.8333 330.5,94.5C 328.095,95.7682 325.428,96.4349 322.5,96.5C 324.649,95.2638 326.982,94.2638 329.5,93.5 Z"/></g>
<g><path style="opacity:0.005" fill="#f5f5f5" d="M 3.5,88.5 C 5.19483,90.8967 6.52816,93.5634 7.5,96.5C 4.94183,94.5659 3.6085,91.8992 3.5,88.5 Z"/></g>
<g><path style="opacity:0.175" fill="#585858" d="M 70.5,95.5 C 68.7163,97.3673 66.7163,99.0339 64.5,100.5C 64.1667,100.5 63.8333,100.5 63.5,100.5C 63.5,99.1667 63.5,97.8333 63.5,96.5C 65.8268,96.3354 67.9935,95.6687 70,94.5C 70.3988,94.7284 70.5654,95.0618 70.5,95.5 Z"/></g>
<g><path style="opacity:0.004" fill="#d9d9d9" d="M 316.5,98.5 C 315.609,99.1098 314.609,99.4431 313.5,99.5C 314.053,97.4482 315.053,97.1148 316.5,98.5 Z"/></g>
<g><path style="opacity:0.067" fill="#848484" d="M 8.5,98.5 C 10.7221,98.9748 11.3888,99.9748 10.5,101.5C 9.09368,101.027 8.42702,100.027 8.5,98.5 Z"/></g>
<g><path style="opacity:0.004" fill="#fefffe" d="M 63.5,100.5 C 63.8333,100.5 64.1667,100.5 64.5,100.5C 64.5,101.833 63.8333,102.5 62.5,102.5C 62.8333,101.833 63.1667,101.167 63.5,100.5 Z"/></g>
<g><path style="opacity:0.008" fill="#767676" d="M 308.5,100.5 C 306.283,101.369 303.95,101.702 301.5,101.5C 303.137,100.62 304.97,99.9537 307,99.5C 307.765,99.5699 308.265,99.9033 308.5,100.5 Z"/></g>
<g><path style="opacity:0.99" fill="#4d3d4d" d="M 156.5,95.5 C 159.607,95.1741 161.94,96.3408 163.5,99C 163.167,99.3333 162.833,99.6667 162.5,100C 166.128,103.469 165.795,105.469 161.5,106C 165.248,106.711 166.915,108.711 166.5,112C 164.203,113.16 164.536,114.16 167.5,115C 167.167,116.667 166.833,118.333 166.5,120C 167.136,122.163 168.136,124.33 169.5,126.5C 151.783,130.946 133.783,134.612 115.5,137.5C 114.448,137.649 113.448,137.483 112.5,137C 111.833,135 110.5,133.667 108.5,133C 111.612,132.149 111.946,130.983 109.5,129.5C 110.571,127.675 109.904,126.508 107.5,126C 108.624,125.751 109.624,125.251 110.5,124.5C 109.509,122.677 108.176,121.177 106.5,120C 107.308,119.692 107.975,119.192 108.5,118.5C 108.136,116.267 107.136,114.434 105.5,113C 108.012,111.127 107.846,109.293 105,107.5C 103.701,107.966 102.201,107.966 100.5,107.5C 118.889,102.887 137.556,98.8869 156.5,95.5 Z"/></g>
<g><path style="opacity:0.004" fill="#e2e2e2" d="M 301.5,101.5 C 300.713,103.104 299.38,103.771 297.5,103.5C 298.287,101.896 299.62,101.229 301.5,101.5 Z"/></g>
<g><path style="opacity:0.007" fill="#e8e8e8" d="M 59.5,103.5 C 59.7148,105.179 59.0481,106.179 57.5,106.5C 57.9321,105.29 58.5987,104.29 59.5,103.5 Z"/></g>
<g><path style="opacity:0.008" fill="#b1b1b1" d="M 294.5,103.5 C 293.07,104.537 291.403,105.204 289.5,105.5C 290.635,103.787 292.302,103.12 294.5,103.5 Z"/></g>
<g><path style="opacity:0.009" fill="#fefffe" d="M 57.5,106.5 C 57.5,107.833 56.8333,108.5 55.5,108.5C 55.5,107.167 56.1667,106.5 57.5,106.5 Z"/></g>
<g><path style="opacity:0.99" fill="#453446" d="M 100.5,107.5 C 102.201,107.966 103.701,107.966 105,107.5C 107.846,109.293 108.012,111.127 105.5,113C 107.136,114.434 108.136,116.267 108.5,118.5C 107.975,119.192 107.308,119.692 106.5,120C 108.176,121.177 109.509,122.677 110.5,124.5C 109.624,125.251 108.624,125.751 107.5,126C 109.904,126.508 110.571,127.675 109.5,129.5C 111.946,130.983 111.612,132.149 108.5,133C 110.5,133.667 111.833,135 112.5,137C 113.448,137.483 114.448,137.649 115.5,137.5C 103.731,139.948 91.7305,141.615 79.5,142.5C 79.0825,141.778 78.4158,141.278 77.5,141C 76.4177,137.542 76.4177,134.042 77.5,130.5C 75.8368,126.114 74.5034,121.947 73.5,118C 73.9054,117.055 74.572,116.388 75.5,116C 73.9371,115.241 72.9371,114.074 72.5,112.5C 81.8372,110.832 91.1705,109.165 100.5,107.5 Z"/></g>
<g><path style="opacity:0.02" fill="#d3d3d3" d="M 17.5,109.5 C 19.5,109.5 20.5,110.5 20.5,112.5C 19.1667,111.833 18.1667,110.833 17.5,109.5 Z"/></g>
<g><path style="opacity:0.024" fill="#8d8d8d" d="M 53.5,109.5 C 52.5,111.167 51.1667,112.5 49.5,113.5C 48.4019,112.603 48.4019,111.77 49.5,111C 50.745,110.209 52.0783,109.709 53.5,109.5 Z"/></g>
<g><path style="opacity:0.016" fill="#8a8a8a" d="M 269.5,110.5 C 267.095,111.768 264.428,112.435 261.5,112.5C 261.611,111.883 261.944,111.383 262.5,111C 264.81,110.503 267.143,110.337 269.5,110.5 Z"/></g>
<g><path style="opacity:0.006" fill="#cdcdcd" d="M 21.5,112.5 C 24.1979,112.845 26.1979,114.178 27.5,116.5C 25.1475,115.66 23.1475,114.326 21.5,112.5 Z"/></g>
<g><path style="opacity:0.005" fill="#dbdbdb" d="M 236.5,119.5 C 235.081,120.451 233.415,120.784 231.5,120.5C 233.074,119.072 234.741,118.739 236.5,119.5 Z"/></g>
<g><path style="opacity:0.02" fill="#a1a1a1" d="M 29.5,119.5 C 31.7929,120.301 31.4596,120.968 28.5,121.5C 28.8333,120.833 29.1667,120.167 29.5,119.5 Z"/></g>
<g><path style="opacity:0.005" fill="#d5d5d5" d="M 231.5,120.5 C 228.829,122.118 225.829,122.785 222.5,122.5C 225.02,121.812 227.52,120.812 230,119.5C 230.383,120.056 230.883,120.389 231.5,120.5 Z"/></g>
<g><path style="opacity:0.005" fill="#fefffe" d="M 221.5,123.5 C 220.003,124.306 218.336,124.972 216.5,125.5C 215.893,125.376 215.56,125.043 215.5,124.5C 217.444,123.172 219.444,122.839 221.5,123.5 Z"/></g>
<g><path style="opacity:0.033" fill="#ababab" d="M 204.5,126.5 C 203.713,128.104 202.38,128.771 200.5,128.5C 201.183,126.824 202.517,126.157 204.5,126.5 Z"/></g>
<g><path style="opacity:0.004" fill="#e4e4e4" d="M 212.5,125.5 C 210.698,126.458 208.698,127.125 206.5,127.5C 208.085,125.018 210.085,124.352 212.5,125.5 Z"/></g>
<g><path style="opacity:0.051" fill="#858585" d="M 199.5,128.5 C 198.151,128.471 196.651,129.138 195,130.5C 194.601,130.272 194.435,129.938 194.5,129.5C 194.791,128.351 195.624,127.684 197,127.5C 198.07,127.528 198.903,127.861 199.5,128.5 Z"/></g>
<g><path style="opacity:0.004" fill="#d6d6d6" d="M 192.5,130.5 C 190.861,130.926 189.528,130.926 188.5,130.5C 189.833,129.167 191.167,129.167 192.5,130.5 Z"/></g>
<g><path style="opacity:0.024" fill="#5b5b5b" d="M 187.5,130.5 C 184.76,132.603 181.76,133.27 178.5,132.5C 181.377,130.694 184.377,130.027 187.5,130.5 Z"/></g>
<g><path style="opacity:0.008" fill="#949494" d="M 176.5,133.5 C 175.081,134.451 173.415,134.784 171.5,134.5C 172.856,132.462 174.523,132.128 176.5,133.5 Z"/></g>
<g><path style="opacity:0.045" fill="#7a7a7a" d="M 168.5,135.5 C 164.073,136 159.407,137 154.5,138.5C 154.5,138.167 154.5,137.833 154.5,137.5C 158.9,135.896 163.566,135.229 168.5,135.5 Z"/></g>
<g><path style="opacity:0.008" fill="#f2f2f2" d="M 154.5,137.5 C 154.5,137.833 154.5,138.167 154.5,138.5C 153.081,139.451 151.415,139.784 149.5,139.5C 151.028,138.691 152.694,138.024 154.5,137.5 Z"/></g>
<g><path style="opacity:0.008" fill="#a4a4a4" d="M 138.5,141.5 C 137.791,142.404 136.791,142.737 135.5,142.5C 136.105,140.519 137.105,140.185 138.5,141.5 Z"/></g>
<g><path style="opacity:0.008" fill="#d0d0d0" d="M 124.5,143.5 C 122.22,145.223 119.553,145.889 116.5,145.5C 118.961,144.469 121.627,143.802 124.5,143.5 Z"/></g>
<g><path style="opacity:0.024" fill="#b0b0b0" d="M 23.5,144.5 C 25.0269,144.427 26.0269,145.094 26.5,146.5C 24.9731,146.573 23.9731,145.906 23.5,144.5 Z"/></g>
<g><path style="opacity:0.035" fill="#686868" d="M 26.5,146.5 C 29.6324,147.249 32.2991,148.582 34.5,150.5C 31.0058,150.468 28.3392,149.135 26.5,146.5 Z"/></g>
<g><path style="opacity:0.005" fill="#fefffe" d="M 37.5,151.5 C 36.5,152.833 35.5,152.833 34.5,151.5C 35.6522,150.375 36.6522,150.375 37.5,151.5 Z"/></g>
<g><path style="opacity:0.086" fill="#595959" d="M 59.5,152.5 C 58.5084,152.328 57.8417,152.662 57.5,153.5C 56.8333,153.5 56.1667,153.5 55.5,153.5C 55.1667,152.167 54.8333,152.167 54.5,153.5C 53.5,153.5 52.5,153.5 51.5,153.5C 51.5,153.167 51.5,152.833 51.5,152.5C 54.2143,150.028 56.8809,150.028 59.5,152.5 Z"/></g>
<g><path style="opacity:0.012" fill="#cdcdcd" d="M 40.5,151.5 C 43.9387,151.253 47.272,151.586 50.5,152.5C 50.5,152.833 50.5,153.167 50.5,153.5C 49.8333,153.5 49.1667,153.5 48.5,153.5C 48.1667,152.167 47.8333,152.167 47.5,153.5C 46.8333,153.5 46.1667,153.5 45.5,153.5C 45.1667,152.167 44.8333,152.167 44.5,153.5C 43.8333,153.5 43.1667,153.5 42.5,153.5C 41.8333,152.833 41.1667,152.167 40.5,151.5 Z"/></g>
<g><path style="opacity:0.005" fill="#fefffe" d="M 68.5,151.5 C 68.1667,152.167 67.8333,152.833 67.5,153.5C 65.1667,153.5 62.8333,153.5 60.5,153.5C 60.5,153.167 60.5,152.833 60.5,152.5C 63.1667,152.167 65.8333,151.833 68.5,151.5 Z"/></g>
<g><path style="opacity:0.005" fill="#e8e8e8" d="M 79.5,150.5 C 79.0377,151.88 78.0377,152.547 76.5,152.5C 74.1152,152.356 71.7819,152.022 69.5,151.5C 72.7861,150.793 76.1194,150.46 79.5,150.5 Z"/></g>
</svg>
